<?xml version="1.0" encoding="utf-8"?>
<!-- Generator: Adobe Illustrator 24.0.3, SVG Export Plug-In . SVG Version: 6.00 Build 0)  -->
<svg version="1.1" id="Layer_1" xmlns:serif="http://www.serif.com/"
	 xmlns="http://www.w3.org/2000/svg" xmlns:xlink="http://www.w3.org/1999/xlink" x="0px" y="0px" width="217.5px" height="178.3px"
	 viewBox="0 0 217.5 178.3" style="enable-background:new 0 0 217.5 178.3;" xml:space="preserve">
<style type="text/css">
	.st0{fill:#B4B4B4;}
	.st1{fill:#3C3C3A;}
	.st2{fill:#707070;}
	.st3{fill:#FFFFFF;}
	.st4{fill:none;stroke:#325975;stroke-width:3.3;stroke-linecap:round;stroke-linejoin:round;stroke-miterlimit:10;}
	.st5{fill:#F29BB4;}
	.st6{fill:#EF82A2;}
	.st7{fill:none;stroke:#325975;stroke-width:2.75;stroke-linecap:round;stroke-linejoin:round;stroke-miterlimit:10;}
	.st8{fill:#F7C3D2;}
	.st9{fill:#F29101;}
</style>
<g>
	<g>
		<g>
			<g>
				<g>
					<g>
						<path class="st0" d="M213.5,163.8c0,2.9-21.6,3.7-23.9,3.7H27.9c-2.3,0-23.9-0.8-23.9-3.7l19.7-29.6c0-2.9,1.9-5.2,4.2-5.2
							h161.7c2.3,0,4.2,2.3,4.2,5.2L213.5,163.8z"/>
						<g>
							<g>
								<polygon class="st1" points="75.5,157.2 33.9,157.2 41.2,139.6 78.8,139.6 								"/>
								<polygon class="st1" points="142,157.2 183.6,157.2 176.3,139.6 138.7,139.6 								"/>
								<polygon class="st1" points="188.2,157.2 202.8,157.2 190.8,139.6 179.8,139.6 								"/>
								<polygon class="st1" points="29.3,157.2 14.7,157.2 26.7,139.6 37.7,139.6 								"/>
								<polygon class="st1" points="138.3,157.2 79.2,157.2 82.5,139.6 135,139.6 								"/>
							</g>
							<g>
								<rect x="18.3" y="142.8" class="st0" width="180.9" height="2.7"/>
								<rect x="16.4" y="149.4" class="st0" width="184.8" height="2.7"/>
							</g>
						</g>
					</g>
					<g>
						<path class="st1" d="M214.6,170.7c0,2.3-0.5,4.2-2.8,4.2H5.7c-2.3,0-2.8-1.9-2.8-4.2V167c0-2.3,0.5-4.2,2.8-4.2h206.1
							c2.3,0,2.8,1.9,2.8,4.2V170.7z"/>
						<path class="st2" d="M147.4,168.9c0,1.2-1,2.2-2.2,2.2H72.3c-1.2,0-2.2-1-2.2-2.2l0,0c0-1.2,1-2.2,2.2-2.2h72.9
							C146.4,166.7,147.4,167.7,147.4,168.9L147.4,168.9z"/>
					</g>
				</g>
				<g>
					<path class="st1" d="M195.9,130.3c0,2.3-1.9,4.2-4.2,4.2H25.8c-2.3,0-4.2-1.9-4.2-4.2V22c0-2.3,1.9-4.2,4.2-4.2h165.9
						c2.3,0,4.2,1.9,4.2,4.2V130.3z"/>
					<g>
						<g>
							<path class="st3" d="M108.8,23.7c2.3,0,2.3-3.5,0-3.5C106.5,20.2,106.5,23.7,108.8,23.7L108.8,23.7z"/>
						</g>
					</g>
					<g>
						<path class="st3" d="M183.7,123.5c0,2-1.6,3.6-3.6,3.6H37.4c-2,0-3.6-1.6-3.6-3.6V30.4c0-2,1.6-3.6,3.6-3.6h142.7
							c2,0,3.6,1.6,3.6,3.6V123.5z"/>
						<g>
							<g>
								<g>
									<line class="st4" x1="86.9" y1="64.5" x2="74.5" y2="76.9"/>
									<line class="st4" x1="86.9" y1="76.9" x2="74.5" y2="64.5"/>
								</g>
								<g>
									<line class="st4" x1="143" y1="64.5" x2="130.6" y2="76.9"/>
									<line class="st4" x1="143" y1="76.9" x2="130.6" y2="64.5"/>
								</g>
							</g>
							<g>
								<g>
									<path class="st5" d="M137.4,91.9v12.3c0,2.4-2,4.4-4.4,4.4h-2.4c-2.4,0-4.4-2-4.4-4.4V91.9"/>
									<g>
										<polygon class="st6" points="133.8,92.6 131.9,106.9 129.9,92.6 										"/>
									</g>
								</g>
								<line class="st7" x1="71.5" y1="91.9" x2="146" y2="91.9"/>
							</g>
							<g>
								<g>
									<g>
										<path class="st8" d="M59.3,90.1c2.9,0,5.6-2.5,5.5-5.5c-0.1-3-2.4-5.5-5.5-5.5c-2.9,0-5.6,2.5-5.5,5.5
											C53.9,87.6,56.2,90.1,59.3,90.1L59.3,90.1z"/>
									</g>
								</g>
								<g>
									<g>
										<path class="st8" d="M158.3,90.1c2.9,0,5.6-2.5,5.5-5.5c-0.1-3-2.4-5.5-5.5-5.5c-2.9,0-5.6,2.5-5.5,5.5
											C152.9,87.6,155.2,90.1,158.3,90.1L158.3,90.1z"/>
									</g>
								</g>
							</g>
						</g>
					</g>
				</g>
			</g>
		</g>
		<g>
			<g>
				<g>
					<path class="st9" d="M167.6,3.4c0,12.1,0,24.2,0,36.3c0,3.5,5.5,3.5,5.5,0c0-12.1,0-24.2,0-36.3C173.1-0.1,167.6-0.2,167.6,3.4
						L167.6,3.4z"/>
				</g>
			</g>
			<g>
				<g>
					<path class="st9" d="M170.4,53.7c2.2,0,4.2-1.9,4.1-4.1c-0.1-2.2-1.8-4.1-4.1-4.1c-2.2,0-4.2,1.9-4.1,4.1
						C166.3,51.8,168,53.7,170.4,53.7L170.4,53.7z"/>
				</g>
			</g>
		</g>
	</g>
</g>
</svg>
