<?xml version="1.0" encoding="utf-8"?>
<!-- Generator: Adobe Illustrator 24.0.3, SVG Export Plug-In . SVG Version: 6.00 Build 0)  -->
<svg version="1.1" id="Layer_1" xmlns:serif="http://www.serif.com/"
	 xmlns="http://www.w3.org/2000/svg" xmlns:xlink="http://www.w3.org/1999/xlink" x="0px" y="0px" width="217.5px" height="178.3px"
	 viewBox="0 0 217.5 178.3" style="enable-background:new 0 0 217.5 178.3;" xml:space="preserve">
<style type="text/css">
	.st0{fill:#B4B4B4;}
	.st1{fill:#3C3C3A;}
	.st2{fill:#707070;}
	.st3{fill:#FFFFFF;}
	.st4{fill:none;stroke:#325975;stroke-width:3.3;stroke-linecap:round;stroke-linejoin:round;stroke-miterlimit:10;}
	.st5{fill:none;stroke:#325975;stroke-width:2.75;stroke-linecap:round;stroke-linejoin:round;stroke-miterlimit:10;}
	.st6{fill:#F7C3D2;}
</style>
<g>
	<g>
		<g>
			<g>
				<g>
					<g>
						<path class="st0" d="M213.5,156.6c0,2.9-21.6,3.7-23.9,3.7H27.9c-2.3,0-23.9-0.8-23.9-3.7l19.7-29.6c0-2.9,1.9-5.2,4.2-5.2
							h161.7c2.3,0,4.2,2.3,4.2,5.2L213.5,156.6z"/>
						<g>
							<g>
								<polygon class="st1" points="75.5,150 33.9,150 41.2,132.4 78.8,132.4 								"/>
								<polygon class="st1" points="142,150 183.6,150 176.3,132.4 138.7,132.4 								"/>
								<polygon class="st1" points="188.2,150 202.8,150 190.8,132.4 179.8,132.4 								"/>
								<polygon class="st1" points="29.3,150 14.7,150 26.7,132.4 37.7,132.4 								"/>
								<polygon class="st1" points="138.3,150 79.2,150 82.5,132.4 135,132.4 								"/>
							</g>
							<g>
								<rect x="18.3" y="135.6" class="st0" width="180.9" height="2.7"/>
								<rect x="16.4" y="142.2" class="st0" width="184.8" height="2.7"/>
							</g>
						</g>
					</g>
					<g>
						<path class="st1" d="M214.6,163.5c0,2.3-0.5,4.2-2.8,4.2H5.7c-2.3,0-2.8-1.9-2.8-4.2v-3.6c0-2.3,0.5-4.2,2.8-4.2h206.1
							c2.3,0,2.8,1.9,2.8,4.2V163.5z"/>
						<path class="st2" d="M147.4,161.8c0,1.2-1,2.2-2.2,2.2H72.3c-1.2,0-2.2-1-2.2-2.2l0,0c0-1.2,1-2.2,2.2-2.2h72.9
							C146.4,159.6,147.4,160.5,147.4,161.8L147.4,161.8z"/>
					</g>
				</g>
				<g>
					<path class="st1" d="M195.9,123.1c0,2.3-1.9,4.2-4.2,4.2H25.8c-2.3,0-4.2-1.9-4.2-4.2V14.8c0-2.3,1.9-4.2,4.2-4.2h165.9
						c2.3,0,4.2,1.9,4.2,4.2V123.1z"/>
					<g>
						<g>
							<path class="st3" d="M108.8,16.5c2.3,0,2.3-3.5,0-3.5C106.5,13,106.5,16.5,108.8,16.5L108.8,16.5z"/>
						</g>
					</g>
					<g>
						<path class="st3" d="M183.7,116.3c0,2-1.6,3.6-3.6,3.6H37.4c-2,0-3.6-1.6-3.6-3.6V23.2c0-2,1.6-3.6,3.6-3.6h142.7
							c2,0,3.6,1.6,3.6,3.6V116.3z"/>
						<g>
							<line class="st4" x1="89.5" y1="63.5" x2="71.9" y2="63.5"/>
							<line class="st4" x1="145.6" y1="63.5" x2="128" y2="63.5"/>
							<g>
								<path class="st5" d="M71.5,84.7c0,0,8.5,15.4,37.5,15.4c27.1,0,37.1-15.4,37.1-15.4"/>
							</g>
							<g>
								<g>
									<g>
										<path class="st6" d="M59.3,82.9c2.9,0,5.6-2.5,5.5-5.5c-0.1-3-2.4-5.5-5.5-5.5c-2.9,0-5.6,2.5-5.5,5.5
											C53.9,80.4,56.2,82.9,59.3,82.9L59.3,82.9z"/>
									</g>
								</g>
								<g>
									<g>
										<path class="st6" d="M158.3,82.9c2.9,0,5.6-2.5,5.5-5.5c-0.1-3-2.4-5.5-5.5-5.5c-2.9,0-5.6,2.5-5.5,5.5
											C152.9,80.4,155.2,82.9,158.3,82.9L158.3,82.9z"/>
									</g>
								</g>
							</g>
						</g>
					</g>
				</g>
			</g>
		</g>
	</g>
</g>
</svg>
