<?xml version="1.0" encoding="utf-8"?>
<!-- Generator: Adobe Illustrator 23.0.1, SVG Export Plug-In . SVG Version: 6.00 Build 0)  -->
<svg version="1.1" id="Layer_1" xmlns="http://www.w3.org/2000/svg" xmlns:xlink="http://www.w3.org/1999/xlink" x="0px" y="0px"
	 width="120px" height="120px" viewBox="0 0 120 120" style="enable-background:new 0 0 120 120;" xml:space="preserve">
<style type="text/css">
	.st0{fill:#46B978;}
	.st1{fill:#EABB36;}
	.st2{fill:#FFE14D;}
	.st3{fill:#FFBE1D;}
</style>
<g>
	<path class="st0" d="M103.8,2.5H16.2C8.7,2.5,2.5,8.7,2.5,16.2v87.5c0,7.6,6.2,13.7,13.7,13.7h87.5c7.6,0,13.7-6.2,13.7-13.7V16.2
		C117.5,8.7,111.3,2.5,103.8,2.5z"/>
	<g>
		<g>
			<g>
				<defs>
					<path id="SVGID_1_" d="M103.8,2.5H16.2C8.7,2.5,2.5,8.7,2.5,16.2v87.5c0,7.6,6.2,13.7,13.7,13.7h87.5c7.6,0,13.7-6.2,13.7-13.7
						V16.2C117.5,8.7,111.3,2.5,103.8,2.5z"/>
				</defs>
				<clipPath id="SVGID_2_">
					<use xlink:href="#SVGID_1_"  style="overflow:visible;"/>
				</clipPath>
			</g>
		</g>
	</g>
</g>
<g>
	<path class="st1" d="M61,19.9h-2c-2.1,0-3.8,1.7-3.8,3.8v14.1h9.5V23.7C64.8,21.6,63.1,19.9,61,19.9z"/>
	<path class="st2" d="M60,30.6c-13.1,0-23.8,10.6-23.8,23.8v27.4h47.6V54.4C83.8,41.3,73.1,30.6,60,30.6z"/>
	<path class="st1" d="M68.8,91.3c0,3.6-2.1,6.7-5.2,8.1c-1.1,0.5-2.3,0.8-3.6,0.8c-4.9,0-8.8-4-8.8-8.8s4-8.8,8.8-8.8
		c1.3,0,2.5,0.3,3.6,0.8C66.7,84.6,68.8,87.7,68.8,91.3z"/>
	<path class="st2" d="M68.8,91.3c0,3.6-2.1,6.7-5.2,8.1c-3.1-1.4-5.2-4.5-5.2-8.1c0-3.6,2.1-6.7,5.2-8.1
		C66.7,84.6,68.8,87.7,68.8,91.3z"/>
	<path class="st3" d="M59.7,30.6c-7,0.3-12.6,10.9-12.6,23.8v27.4H36.2V54.4C36.2,41.4,46.7,30.8,59.7,30.6z"/>
	<path class="st2" d="M83.8,91.3H36.2c-4.4,0-8-3.6-8-8s3.6-8,8-8h47.6c4.4,0,8,3.6,8,8S88.2,91.3,83.8,91.3z"/>
	<path class="st3" d="M41.1,83.2c0-4.4,3.6-8,8-8H36.2c-4.4,0-8,3.6-8,8s3.6,8,8,8h12.9C44.7,91.3,41.1,87.7,41.1,83.2z"/>
	<path d="M85.8,73.4V65c0-1.1-0.9-2-2-2c-1.1,0-2,0.9-2,2v8.2H38.2V54.4c0-12,9.8-21.8,21.8-21.8c12,0,21.8,9.8,21.8,21.8v3.9
		c0,1.1,0.9,2,2,2c1.1,0,2-0.9,2-2v-3.9c0-11.9-8.1-21.9-19-24.9v-5.8c0-3.2-2.6-5.8-5.8-5.8h-2c-3.2,0-5.8,2.6-5.8,5.8v5.8
		c-8.3,2.3-15,8.6-17.7,16.8l-1,4c-0.2,1.3-0.3,2.7-0.3,4.1v19c-4.6,0.9-8,5-8,9.8c0,5.5,4.5,10,10,10h13.1c0.9,5,5.4,8.8,10.6,8.8
		s9.7-3.8,10.6-8.8h13.1c5.5,0,10-4.5,10-10C93.8,78.4,90.4,74.3,85.8,73.4z M59,21.9h2c1,0,1.8,0.8,1.8,1.8v5.1
		c-0.9-0.1-1.8-0.1-2.8-0.1c-0.9,0-1.9,0.1-2.8,0.1v-5.1h0C57.2,22.7,58,21.9,59,21.9z M60,98.1c-3.1,0-5.7-2-6.5-4.8h13.1
		C65.7,96.1,63.1,98.1,60,98.1z M83.8,89.3H36.2c-3.3,0-6-2.7-6-6c0-3.3,2.7-6,6-6c0,0,0,0,0,0c0,0,0,0,0,0h47.5c0,0,0,0,0,0
		c0,0,0,0,0,0c3.3,0,6,2.7,6,6C89.8,86.6,87.1,89.3,83.8,89.3z"/>
</g>
</svg>
