<?xml version="1.0" encoding="UTF-8" standalone="no"?>
<!DOCTYPE svg PUBLIC "-//W3C//DTD SVG 1.1//EN" "http://www.w3.org/Graphics/SVG/1.1/DTD/svg11.dtd">
<svg width="100%" height="100%" viewBox="0 0 50 50" version="1.1" xmlns="http://www.w3.org/2000/svg" xmlns:xlink="http://www.w3.org/1999/xlink" xml:space="preserve" xmlns:serif="http://www.serif.com/" style="fill-rule:evenodd;clip-rule:evenodd;stroke-linejoin:round;stroke-miterlimit:2;">
    <path d="M2.6,25.1C2.6,12.7 12.7,2.6 25.1,2.6C37.5,2.6 47.6,12.7 47.6,25.1C47.6,37.5 37.5,47.6 25.1,47.6C12.6,47.5 2.6,37.5 2.6,25.1ZM5.3,25.1C5.3,36 14.1,44.8 25,44.8C35.9,44.8 44.7,36.1 44.7,25.1C44.7,14.2 36,5.4 25,5.4C14.2,5.4 5.3,14.2 5.3,25.1Z" style="fill:rgb(224,140,59);fill-rule:nonzero;"/>
    <g transform="matrix(0.834574,0,0,0.834574,4.13565,4.1521)">
        <path d="M10.2,25.1C10.2,33.3 16.8,39.9 25,39.9C33.2,39.9 39.8,33.3 39.8,25.1C39.8,16.9 33.2,10.3 25,10.3C16.8,10.2 10.2,16.9 10.2,25.1Z" style="fill:rgb(224,140,59);fill-rule:nonzero;"/>
    </g>
</svg>
