<?xml version="1.0" encoding="utf-8"?>
<!-- Generator: Adobe Illustrator 23.0.6, SVG Export Plug-In . SVG Version: 6.00 Build 0)  -->
<svg version="1.1" id="Layer_1" xmlns="http://www.w3.org/2000/svg" xmlns:xlink="http://www.w3.org/1999/xlink" x="0px" y="0px"
	 width="120px" height="120px" viewBox="0 0 120 120" style="enable-background:new 0 0 120 120;" xml:space="preserve">
<style type="text/css">
	.st0{fill:#FFFFFF;}
</style>
<g>
	<path class="st0" d="M86.7,56.3c3.7-4,5-9.7,3.3-15c-1.7-5.2-6.2-9.1-11.5-10.1L75,20.4c-0.2-0.5-0.6-0.9-1.1-1.1s-1.1-0.1-1.5,0.2
		L49,35.2l-19.3,6.3c-1.7,0.6-3,1.7-3.8,3.3s-0.9,3.4-0.4,5L33,72.5c0.6,1.7,1.8,3.1,3.3,3.8c1.1,0.6,2.4,0.8,3.6,0.7l2.2,4
		c0.4,0.8,1.5,1.1,2.3,0.7s1.1-1.5,0.7-2.3l-1.8-3.3l9.5-3.1l5.1,9.4l0,0l0,0l5,9.2c0.2,0.4,0.1,0.8,0.1,1c-0.1,0.2-0.3,0.5-0.7,0.7
		L55,95.7c-0.5,0.2-1.1-0.1-1.4-0.6l-6.3-11.5c-0.4-0.8-1.5-1.1-2.3-0.7s-1.1,1.5-0.7,2.3l6.3,11.5c0.5,0.8,1.1,1.5,1.9,1.9
		c1,0.5,2.3,0.7,3.5,0.3l7.2-2.4c1.3-0.4,2.3-1.4,2.8-2.7c0.5-1.3,0.4-2.7-0.2-3.9l-4.3-7.8c3.8-2.8,6-7.4,5.8-12.1l21.3-0.9
		c0.5,0,1-0.3,1.3-0.7c0.3-0.4,0.4-1,0.2-1.5L86.7,56.3z M86.7,42.3c1.1,3.4,0.6,7.1-1.3,10.1L79.7,35C83,36.3,85.6,38.9,86.7,42.3z
		 M36.2,71.5l-7.4-22.7c-0.3-0.8-0.2-1.7,0.2-2.5c0.4-0.8,1.1-1.3,1.9-1.6l17.9-5.9l9.5,28.9l-17.9,5.9
		C38.6,74.1,36.7,73.2,36.2,71.5z M59.9,79.2L56,72l4.6-1.5l3.4-0.1C64.2,73.8,62.7,77.1,59.9,79.2z M61.5,67l-9.7-29.6l20.6-13.9
		L86.3,66L61.5,67z"/>
	<path class="st0" d="M46.1,47.1c-0.3-0.9-1.2-1.4-2.1-1.1l-10.3,3.4c-0.9,0.3-1.4,1.2-1.1,2.1c0.1,0.4,0.5,0.8,0.8,1
		c0.4,0.2,0.8,0.2,1.3,0.1L45,49.3C45.9,49,46.4,48,46.1,47.1z"/>
	<path class="st0" d="M48,53.1c-0.3-0.9-1.2-1.4-2.1-1.1l-10.3,3.4c-0.9,0.3-1.4,1.2-1.1,2.1c0.1,0.4,0.5,0.8,0.8,1
		c0.4,0.2,0.8,0.2,1.3,0.1l10.3-3.4C47.8,54.9,48.3,54,48,53.1z"/>
	<path class="st0" d="M50,59c-0.3-0.9-1.2-1.4-2.1-1.1l-10.3,3.4c-0.9,0.3-1.4,1.2-1.1,2.1c0.1,0.4,0.5,0.8,0.8,1
		c0.4,0.2,0.8,0.2,1.3,0.1l10.3-3.4C49.8,60.9,50.2,59.9,50,59z"/>
</g>
</svg>
